<svg width="7835" height="1037" viewBox="0 0 7835 1037" fill="none" xmlns="http://www.w3.org/2000/svg">
<path d="M1194.7 829.187L1184.44 816.096C1063.52 634.182 1002.93 343.217 1002.31 340.253L1001.45 335.931C1000.96 333.708 1000.96 332.596 998.853 331.732L993.162 329.262C760.336 236.761 609.734 136.356 519.348 13.1037C519.348 13.1037 514.402 6.55827 510.569 1.4948C509.333 -0.110694 505.994 -0.85169 504.263 1.4948L495.608 12.4863C414.867 108.075 284.296 196.006 190.818 240.836C190.818 240.836 185.749 243.43 185.254 243.924C184.76 244.418 183.523 245.653 183.276 246.888L182.411 251.951C176.475 288.877 121.082 618.25 9.30529 816.961L1.26824 830.545C-1.08105 834.25 -0.0918658 836.227 3.61754 835.979H1192.85C1197.05 835.979 1198.66 833.757 1194.83 829.31L1194.7 829.187Z" fill="#0D3023"/>
<path d="M7325.27 324.677H7325.03C7288.74 313.64 7249.99 311.433 7213.09 321.243C7179.5 330.195 7149.71 348.957 7125.92 373.973C7124.33 359.994 7122.74 346.137 7121.27 332.157C7120.9 329.459 7119.18 327.006 7116.12 327.006C7075.17 327.742 7034.1 328.478 6993.15 329.214C6990.33 329.214 6988 331.544 6988 334.364C6988 390.773 6988.25 812.371 6988.25 832.85C6988.25 835.67 6990.57 838 6993.39 838C7035.2 837.755 7077.01 837.632 7118.81 837.387C7121.63 837.387 7123.96 835.057 7123.96 832.236C7124.82 752.16 7127.03 557.671 7127.27 540.503C7127.4 524.071 7128.5 508.374 7137.08 493.659C7170.18 436.882 7273.9 428.666 7305.41 491.451C7310.8 502.12 7312.4 513.525 7313.13 525.297C7314.11 539.767 7316.08 773.375 7317.18 832.604C7317.18 835.425 7319.51 837.755 7322.33 837.755C7364.5 837.755 7406.68 837.755 7448.85 837.877C7451.67 837.877 7454 835.547 7454 832.727C7453.39 773.62 7451.79 495.008 7448.85 473.425C7439.53 405.857 7390.37 345.769 7325.27 324.677Z" fill="black"/>
<path d="M6469 270.082H6468.88C6468.63 228.437 6468.26 186.79 6468.02 145.145C6468.02 142.327 6465.69 140 6462.87 140H5998.01C5995.56 140 5992.86 142.082 5992.86 145.145C5992.86 186.668 5992.25 228.314 5992 269.837C5992 272.655 5994.33 274.982 5997.15 274.982L6157.38 276.452L6157.75 835.855C6157.75 838.55 6160.08 841 6162.9 841C6208.17 840.51 6253.32 840.02 6298.59 839.653C6301.41 839.653 6303.74 837.325 6303.74 834.508L6303.99 275.962L6463.85 275.227C6466.67 275.227 6469 272.9 6469 270.082Z" fill="black"/>
<path d="M7833.04 718.566C7833.16 714.762 7830.11 713.412 7827.9 713.412H7827.66C7808.81 714.149 7788.99 715.621 7770.38 711.572C7763.29 709.977 7755.82 707.646 7749.46 703.842C7742.12 699.303 7737.83 690.837 7734.65 682.984C7727.8 666.42 7727.18 454.28 7727.18 454.28L7829.25 452.808C7832.06 452.808 7834.39 450.477 7834.39 447.655L7833.78 333.058C7833.78 330.236 7831.45 327.904 7828.64 327.904H7727.31V228.153C7727.31 225.331 7724.98 223 7722.17 223H7597.22C7594.41 223 7592.08 225.454 7592.08 228.153L7590.98 326.677C7590.98 326.677 7547.05 328.272 7525.14 329.009C7522.33 329.009 7520 331.34 7520 334.162L7520.37 447.164C7520.37 449.986 7522.69 452.195 7525.51 452.317L7590.86 455.017C7590.86 455.017 7592.32 648.261 7592.57 668.506C7593.18 717.584 7612.03 768.748 7648.86 802.121C7697.32 846.046 7770.14 855.616 7831.21 836.966C7833.29 836.353 7835 834.267 7835 832.059L7833.04 718.566Z" fill="black"/>
<path d="M6814.3 365.818H6814.42C6740.69 312.439 6642.21 301.298 6558.07 335.578C6478.95 367.899 6420.28 438.417 6403.25 522.157C6386.11 606.754 6403.5 701.39 6464.49 765.052C6517.41 820.267 6593.83 850.996 6669.89 851.975C6745.22 852.955 6819.93 824.674 6873.34 771.174C6880.32 764.195 6886.81 756.85 6892.93 749.137C6895.02 746.566 6895.02 742.893 6891.95 741.057C6858.64 720.856 6825.2 700.533 6791.89 680.333C6789.93 679.108 6787.23 679.598 6785.64 681.19C6768.61 698.207 6748.9 712.531 6725.99 720.489C6705.54 727.59 6683.73 729.181 6662.18 727.222C6618.94 723.305 6580.36 704.451 6557.58 667.233C6595.92 657.806 6895.26 584.227 6910.2 580.555C6912.41 580.065 6914 577.861 6914 575.658C6912.53 494.733 6880.68 414.911 6814.3 365.818ZM6545.94 559.864C6544.72 516.525 6569.21 477.104 6608.16 457.515C6643.68 439.641 6691.21 437.193 6725.87 458.005C6746.08 470.125 6760.04 488.979 6769.96 509.914C6745.47 515.423 6553.54 558.15 6545.94 559.864Z" fill="black"/>
<path d="M3764.85 444.441L3455.79 443.828C3452.97 443.828 3450.64 446.155 3450.64 448.972C3451.01 487.553 3451.87 526.134 3451.87 564.714C3451.87 567.654 3454.19 569.858 3457.01 569.858L3644.44 571.695C3636.23 605.01 3621.04 636.241 3596.91 660.982C3573.51 684.988 3543.5 701.277 3511.28 709.973C3443.66 728.1 3365.63 716.954 3312.22 669.8C3256.48 620.564 3231.61 543.525 3238.47 470.529C3245.45 395.327 3287.72 319.513 3359.13 288.771C3400.66 270.889 3448.19 264.888 3492.54 274.319C3537.37 283.75 3576.69 308.49 3606.71 342.662C3608.18 344.254 3611.12 344.621 3612.95 343.519L3723.57 269.42C3726.51 267.46 3726.76 264.031 3724.55 261.336C3685.47 211.61 3633.17 174.254 3573.51 153.311C3516.79 133.347 3454.32 127.468 3394.66 135.429C3288.45 149.636 3193.88 212.345 3140.35 305.428C3085.59 400.594 3076.28 520.5 3113.03 623.626C3148.19 722.466 3225.73 802.322 3324.83 837.35C3431.29 874.951 3567.51 864.295 3649.09 779.663C3656.81 771.702 3663.67 763.129 3670.16 754.188H3670.28C3676.16 782.97 3681.92 811.63 3687.8 840.412C3688.29 842.617 3690.62 844.209 3692.7 844.209C3716.71 843.964 3740.6 843.842 3764.61 843.597C3767.43 843.597 3769.75 841.27 3769.75 838.453L3770 449.585C3770 446.768 3767.67 444.441 3764.85 444.441Z" fill="black"/>
<path d="M4636.42 371.713C4562.69 318.445 4464.21 307.302 4380.07 341.589C4300.95 373.917 4242.28 444.45 4225.25 528.208C4208.11 612.824 4225.5 707.48 4286.49 771.156C4339.41 826.26 4415.83 856.996 4491.89 857.975C4567.22 858.955 4641.93 830.668 4695.34 777.156C4702.32 770.176 4708.81 762.829 4714.93 755.115C4717.02 752.543 4717.02 748.869 4713.95 747.033L4613.89 686.296C4611.93 685.071 4609.23 685.561 4607.64 687.153C4590.61 704.174 4570.89 718.501 4547.99 726.46C4527.54 733.563 4505.73 735.155 4484.18 733.195C4440.94 729.277 4402.36 710.419 4379.58 673.193L4732.2 586.496C4734.41 586.006 4736 583.802 4736 581.598C4734.53 500.656 4702.68 420.817 4636.3 371.713H4636.42ZM4367.94 565.679C4366.72 522.33 4391.21 482.9 4430.16 463.308C4465.68 445.43 4513.21 442.981 4547.87 463.798C4568.08 475.921 4582.04 494.778 4591.96 515.718C4567.47 521.228 4375.54 563.965 4367.94 565.679Z" fill="black"/>
<path d="M5198.32 371.701C5124.61 318.446 5026.16 307.306 4942.03 341.585C4862.93 373.905 4804.27 444.422 4787.25 528.161C4770.11 612.757 4787.5 707.392 4848.48 771.053C4901.38 826.267 4977.79 856.996 5053.83 857.975C5129.14 858.955 5203.83 830.674 5257.22 777.175C5264.2 770.196 5270.69 762.851 5276.82 755.138H5276.94C5279.02 752.445 5279.02 748.772 5275.96 746.935L5175.92 686.212C5173.96 684.988 5171.26 685.478 5169.67 687.069C5152.65 704.087 5132.93 718.41 5110.04 726.368C5089.59 733.469 5067.79 735.06 5046.24 733.101C5003.01 729.184 4964.44 710.33 4941.66 673.113L5294.2 586.436C5296.41 585.946 5298 583.742 5298 581.539C5296.53 500.615 5264.69 420.794 5198.32 371.701ZM4929.91 565.746C4928.68 522.407 4953.17 482.986 4992.11 463.398C5027.62 445.524 5075.14 443.075 5109.79 463.888C5130 476.008 5143.95 494.861 5153.87 515.796C5129.38 521.305 4937.5 564.032 4929.91 565.746Z" fill="black"/>
<path d="M5816.32 501.591C5815.22 443.358 5785.3 388.436 5737.98 354.599C5690.41 320.64 5624.7 312.181 5569.53 330.325C5539.74 340.133 5513.38 357.541 5491.92 380.099C5490.33 366.123 5488.74 352.27 5487.27 338.294C5487.02 335.597 5485.18 333.145 5482.12 333.145L5359.15 335.352C5356.33 335.352 5354 337.681 5354 340.501L5354.25 838.851C5354.25 841.671 5356.57 844 5359.39 844L5484.81 843.387C5487.63 843.387 5489.96 841.058 5489.96 838.238L5493.27 546.584C5493.4 530.156 5494.5 514.464 5503.08 499.752C5536.18 442.99 5639.9 434.777 5671.41 497.545C5676.8 508.211 5678.4 519.613 5679.13 531.382L5683.18 838.606C5683.18 841.426 5685.51 843.755 5688.33 843.755H5814.85C5817.55 843.877 5820 841.548 5820 838.728L5816.44 501.346V501.591H5816.32Z" fill="black"/>
<path d="M4176.85 322.004C4144.25 322.862 4112.13 330.095 4083.33 345.664L4083.08 345.419C4057.83 359.027 4036.26 378.274 4017.38 399.727L4014.69 338.922C4014.69 336.102 4012.48 333.773 4009.54 333.773C3967.74 333.896 3925.95 334.018 3884.15 334.263C3881.33 334.263 3879 336.593 3879 339.412V838.851C3879 841.671 3881.33 844 3884.15 844H4010.28C4013.09 844 4015.42 841.548 4015.42 838.851L4017.63 588.028C4017.88 569.027 4022.41 550.393 4030.25 533.107C4042.27 506.505 4061.51 485.419 4089.33 475.244C4116.67 465.069 4146.82 467.03 4175.5 469.237C4178.32 469.482 4180.65 466.663 4180.65 464.088L4182 327.153C4182 324.456 4179.67 321.882 4176.85 322.004Z" fill="black"/>
<path d="M1914.52 468.108C1961.49 432.963 1988.46 380.063 1985.28 320.55C1982.7 271.814 1964.31 223.689 1925.93 192.218C1891.35 163.932 1847.2 150.462 1803.79 143.237C1754.49 135.155 1704.22 134.42 1654.31 135.277L1501.15 136.747C1498.45 136.747 1496 139.318 1496 141.89V831.797C1496 834.368 1498.33 836.94 1501.15 836.94L1650.26 837.919C1705.08 839.511 1760.26 840.368 1814.83 832.899C1862.65 826.531 1911.7 813.306 1949.84 782.448C1991.78 748.405 2010.29 696.362 2012.74 643.707C2014.46 607.828 2007.59 571.337 1990.18 539.743C1972.89 508.518 1945.91 484.517 1914.52 468.108ZM1641.92 262.017L1758.79 264.711C1791.53 265.691 1823.9 282.712 1835.18 314.918C1845.12 343.327 1838.13 378.839 1816.54 400.146C1805.02 411.534 1789.81 418.269 1773.87 420.351C1767.37 421.208 1641.92 423.657 1641.92 423.657V262.017ZM1864.98 631.951C1863.26 650.319 1855.91 668.688 1843.4 682.402C1829.42 697.832 1810.04 706.159 1789.44 707.75L1641.8 710.812V541.335H1641.92L1757.32 542.437C1777.3 542.56 1797.17 541.825 1816.05 549.54C1849.53 563.377 1868.29 596.317 1864.98 631.951Z" fill="black"/>
<path d="M2224.88 327L2099.12 327.245C2096.68 327.245 2094 329.818 2094 332.392V831.853C2094 834.672 2096.32 837 2099.12 837L2224.88 836.387C2227.68 836.387 2230 834.059 2230 831.241V332.147C2230 329.328 2227.56 327 2224.88 327Z" fill="black"/>
<path d="M2111.83 141.972C2084.06 169.934 2084.06 215.189 2111.83 243.028C2139.61 270.991 2184.56 270.991 2212.21 243.028C2239.87 215.066 2239.99 169.811 2212.21 141.972C2184.44 114.009 2139.49 114.009 2111.83 141.972Z" fill="black"/>
<path d="M2835.1 327.974L2711.96 327.362C2708.9 327.362 2707.18 329.69 2706.81 332.508C2705.1 347.334 2703.38 362.282 2701.67 377.108C2650.45 325.156 2578.28 305.797 2506.48 319.03C2469.36 325.891 2432.35 339.982 2401.97 362.65C2373.42 383.847 2350.26 411.661 2333.72 443.151C2298.55 510.296 2294.39 592.145 2322.32 662.721C2335.56 696.048 2355.53 726.803 2381.75 751.309H2381.63C2408.95 776.917 2442.28 794.071 2477.93 804.731C2517.39 816.494 2559.9 819.679 2600.22 810.612C2638.81 801.913 2673.24 781.818 2701.18 754.249C2707.3 798.114 2698.48 848.106 2664.67 878.615C2625.21 914.271 2563.09 922.113 2512.98 910.105C2482.71 902.876 2454.53 888.418 2430.88 868.2C2429.17 866.73 2426.72 866.117 2424.64 867.343C2391.43 887.07 2358.1 906.797 2324.9 926.646C2321.83 928.484 2321.83 932.16 2323.92 934.733C2359.57 979.456 2409.44 1009.11 2464.46 1023.81C2518.86 1038.27 2579.39 1041.21 2634.89 1030.8C2732.67 1012.54 2812.8 940.124 2834.12 841.979C2844.17 796.154 2840.25 333.12 2840.25 333.12C2840.25 329.69 2837.8 327.974 2835.1 327.974ZM2570.81 692.128C2489.08 692.128 2443.87 635.275 2443.87 565.189C2443.87 495.102 2491.17 438.249 2570.81 438.249C2650.45 438.249 2697.75 495.102 2697.75 565.189C2697.75 635.275 2652.54 692.128 2570.81 692.128Z" fill="black"/>
</svg>
