<?xml version="1.0" encoding="UTF-8"?>
<svg id="Layer_1" xmlns="http://www.w3.org/2000/svg" version="1.1" viewBox="0 0 250 250">
  <!-- Generator: Adobe Illustrator 30.2.1, SVG Export Plug-In . SVG Version: 2.1.1 Build 1)  -->
  <defs>
    <style>
      .st0 {
        fill: #ffffff;
      }
    </style>
  </defs>
  <path class="st0" d="M168.33,180.5c-2.96-.91-6.12-1.09-9.13-.29-2.74.73-5.17,2.26-7.11,4.3-.13-1.14-.26-2.27-.38-3.41-.03-.22-.17-.42-.42-.42-3.34.06-6.69.12-10.03.18-.23,0-.42.19-.42.42,0,4.6.02,38.98.02,40.65,0,.23.19.42.42.42,3.41-.02,6.82-.03,10.23-.05.23,0,.42-.19.42-.42.07-6.53.25-22.39.27-23.79.01-1.34.1-2.62.8-3.82,2.7-4.63,11.16-5.3,13.73-.18.44.87.57,1.8.63,2.76.08,1.18.24,20.23.33,25.06,0,.23.19.42.42.42,3.44,0,6.88,0,10.32.01.23,0,.42-.19.42-.42-.05-4.82-.18-27.54-.42-29.3-.76-5.51-4.77-10.41-10.08-12.13Z"/>
  <path class="st0" d="M97.81,175.76c-.02-3.4-.05-6.8-.07-10.2,0-.23-.19-.42-.42-.42h-37.89c-.2,0-.42.17-.42.42,0,3.39-.05,6.79-.07,10.18,0,.23.19.42.42.42l13.06.12.03,45.67c0,.22.19.42.42.42,3.69-.04,7.37-.08,11.06-.11.23,0,.42-.19.42-.42l.02-45.6,13.03-.06c.23,0,.42-.19.42-.42Z"/>
  <path class="st0" d="M209.37,212.16c-1.54.05-3.16.17-4.68-.16-.58-.13-1.19-.32-1.71-.63-.6-.37-.95-1.06-1.21-1.7-.56-1.35-.61-18.64-.61-18.64l8.34-.12c.23,0,.42-.19.42-.42l-.05-9.34c0-.23-.19-.42-.42-.42-2.76,0-8.28,0-8.28,0v-8.13c0-.23-.19-.42-.42-.42h-10.21c-.23,0-.42.2-.42.42l-.09,8.03s-3.59.13-5.38.19c-.23,0-.42.19-.42.42l.03,9.21c0,.23.19.41.42.42l5.34.22s.12,15.75.14,17.4c.05,4,1.59,8.17,4.6,10.89,3.96,3.58,9.91,4.36,14.9,2.84.17-.05.31-.22.31-.4l-.16-9.25c.01-.31-.24-.42-.42-.42Z"/>
  <path class="st0" d="M126.7,183.79c-6.02-4.35-14.06-5.26-20.93-2.46-6.46,2.64-11.25,8.4-12.64,15.24-1.4,6.91.02,14.64,5,19.84,4.32,4.51,10.56,7.02,16.77,7.1,6.15.08,12.25-2.23,16.61-6.6.57-.57,1.1-1.17,1.6-1.8.17-.21.17-.51-.08-.66-2.72-1.65-5.45-3.31-8.17-4.96-.16-.1-.38-.06-.51.07-1.39,1.39-3,2.56-4.87,3.21-1.67.58-3.45.71-5.21.55-3.53-.32-6.68-1.86-8.54-4.9,3.13-.77,27.57-6.78,28.79-7.08.18-.04.31-.22.31-.4-.12-6.61-2.72-13.13-8.14-17.14ZM104.78,199.65c-.1-3.54,1.9-6.76,5.08-8.36,2.9-1.46,6.78-1.66,9.61.04,1.65.99,2.79,2.53,3.6,4.24-2,.45-17.67,3.94-18.29,4.08Z"/>
  <path class="st0" d="M66.17,146.83c.48,2.35.95,4.69,1.43,7.04.04.18.23.31.4.31,1.96-.02,3.91-.03,5.87-.05.23,0,.42-.19.42-.42l.02-31.75c0-.23-.19-.42-.42-.42l-25.23-.05c-.23,0-.42.19-.42.42.03,3.15.1,6.3.1,9.45,0,.24.19.42.42.42l15.3.15c-.67,2.72-1.91,5.27-3.88,7.29-1.91,1.96-4.36,3.29-6.99,4-5.52,1.48-11.89.57-16.25-3.28-4.55-4.02-6.58-10.31-6.02-16.27.57-6.14,4.02-12.33,9.85-14.84,3.39-1.46,7.27-1.95,10.89-1.18,3.66.77,6.87,2.79,9.32,5.58.12.13.36.16.51.07l9.03-6.05c.24-.16.26-.44.08-.66-3.19-4.06-7.46-7.11-12.33-8.82-4.63-1.63-9.73-2.11-14.6-1.46-8.67,1.16-16.39,6.28-20.76,13.88-4.47,7.77-5.23,17.56-2.23,25.98,2.87,8.07,9.2,14.59,17.29,17.45,8.69,3.07,19.81,2.2,26.47-4.71.63-.65,1.19-1.35,1.72-2.08Z"/>
  <path class="st0" d="M116.96,148.24c4.32,4.51,10.56,7.02,16.77,7.1,6.15.08,12.25-2.23,16.61-6.6.57-.57,1.1-1.17,1.6-1.8.17-.21.17-.51-.08-.66l-8.17-4.96c-.16-.1-.38-.06-.51.07-1.39,1.39-3,2.56-4.87,3.21-1.67.58-3.45.71-5.21.55-3.53-.32-6.68-1.86-8.54-4.9l28.79-7.08c.18-.04.31-.22.31-.4-.12-6.61-2.72-13.13-8.14-17.14-6.02-4.35-14.06-5.26-20.93-2.46-6.46,2.64-11.25,8.4-12.64,15.24-1.4,6.91.02,14.64,5,19.84ZM128.68,123.11c2.9-1.46,6.78-1.66,9.61.04,1.65.99,2.79,2.53,3.6,4.24-2,.45-17.67,3.94-18.29,4.08-.1-3.54,1.9-6.76,5.08-8.36Z"/>
  <path class="st0" d="M197.76,146.93c.17-.21.17-.51-.08-.66l-8.17-4.96c-.16-.1-.38-.06-.51.07-1.39,1.39-3,2.56-4.87,3.21-1.67.58-3.45.71-5.21.55-3.53-.32-6.68-1.86-8.54-4.9l28.79-7.08c.18-.04.31-.22.31-.4-.12-6.61-2.72-13.13-8.14-17.14-6.02-4.35-14.06-5.26-20.93-2.46-6.46,2.64-11.25,8.4-12.64,15.24-1.4,6.91.02,14.64,5,19.84,4.32,4.51,10.56,7.02,16.77,7.1,6.15.08,12.25-2.23,16.61-6.6.57-.57,1.1-1.17,1.6-1.8ZM174.5,123.11c2.9-1.46,6.78-1.66,9.61.04,1.65.99,2.79,2.53,3.6,4.24-2,.45-17.67,3.94-18.29,4.08-.1-3.54,1.9-6.76,5.08-8.36Z"/>
  <path class="st0" d="M242.06,126.24c-.09-4.75-2.53-9.23-6.39-11.99-3.88-2.77-9.24-3.46-13.74-1.98-2.43.8-4.58,2.22-6.33,4.06-.13-1.14-.26-2.27-.38-3.41-.02-.22-.17-.42-.42-.42l-10.03.18c-.23,0-.42.19-.42.42l.02,40.65c0,.23.19.42.42.42l10.23-.05c.23,0,.42-.19.42-.42l.27-23.79c.01-1.34.1-2.62.8-3.82,2.7-4.63,11.16-5.3,13.73-.18.44.87.57,1.8.63,2.76l.33,25.06c0,.23.19.42.42.42h10.32c.22.01.42-.18.42-.41l-.29-27.52Z"/>
  <path class="st0" d="M100.33,113.5c-2.06,1.11-3.82,2.68-5.36,4.43l-.22-4.96c-.01-.23-.18-.42-.42-.42-3.41.01-6.82.02-10.23.04-.23,0-.42.19-.42.42v40.74c0,.23.19.42.42.42h10.29c.23,0,.42-.2.42-.42l.18-20.46c.02-1.55.39-3.07,1.03-4.48.98-2.17,2.55-3.89,4.82-4.72,2.23-.83,4.69-.67,7.03-.49.23.02.42-.21.42-.42l.11-11.17c0-.22-.19-.43-.42-.42-2.66.07-5.28.66-7.63,1.93Z"/>
  <path class="st0" d="M33.64,84.58c3.9-.53,7.9-1.61,11.01-4.13,3.42-2.78,4.93-7.03,5.13-11.33.14-2.93-.42-5.91-1.84-8.49-1.41-2.55-3.61-4.51-6.17-5.85,3.83-2.87,6.03-7.19,5.77-12.05-.21-3.98-1.71-7.91-4.84-10.48-2.82-2.31-6.42-3.41-9.96-4-4.02-.66-8.12-.72-12.19-.65l-12.48.13c-.23,0-.42.2-.42.42v56.24s0,.06,0,.1c0,.21.19.42.42.42l12.16.08c4.47.13,8.97.2,13.42-.41ZM29.08,38.17c2.67.08,5.31,1.47,6.23,4.1.81,2.32.24,5.22-1.52,6.96-.94.93-2.18,1.48-3.48,1.65-.53.07-10.76.27-10.76.27v-13.2s9.53.22,9.53.22ZM19.55,60.77l9.41.08c1.63.01,3.25-.05,4.79.58,2.73,1.13,4.26,3.82,3.99,6.73-.14,1.5-.74,3-1.76,4.12-1.14,1.26-2.72,1.94-4.4,2.07l-12.04.25v-13.84Z"/>
  <path class="st0" d="M67.18,43.3l-10.31.02c-.2,0-.42.21-.42.42v40.76c0,.23.19.42.42.42l10.31-.05c.23,0,.42-.19.42-.42v-40.73c0-.23-.2-.42-.42-.42Z"/>
  <circle class="st0" cx="61.99" cy="32.27" r="5.83" transform="translate(-4.66 53.29) rotate(-45)"/>
  <path class="st0" d="M79.94,77.88c2.23,2.09,4.95,3.49,7.86,4.36,3.22.96,6.69,1.22,9.98.48,3.15-.71,5.96-2.35,8.24-4.6.5,3.58-.22,7.66-2.98,10.15-3.22,2.91-8.29,3.55-12.38,2.57-2.47-.59-4.77-1.77-6.7-3.42-.14-.12-.34-.17-.51-.07-2.71,1.61-5.43,3.22-8.14,4.84-.25.15-.25.45-.08.66,2.91,3.65,6.98,6.07,11.47,7.27,4.44,1.18,9.38,1.42,13.91.57,7.98-1.49,14.52-7.4,16.26-15.41.82-3.74.5-41.53.5-41.53,0-.28-.2-.42-.42-.42l-10.05-.05c-.25,0-.39.19-.42.42-.14,1.21-.28,2.43-.42,3.64-4.18-4.24-10.07-5.82-15.93-4.74-3.03.56-6.05,1.71-8.53,3.56-2.33,1.73-4.22,4-5.57,6.57-2.87,5.48-3.21,12.16-.93,17.92,1.08,2.72,2.71,5.23,4.85,7.23ZM95.38,52.32c6.5,0,10.36,4.64,10.36,10.36s-3.69,10.36-10.36,10.36-10.36-4.64-10.36-10.36,3.86-10.36,10.36-10.36Z"/>
</svg>